<svg width="2535" height="1621" viewBox="0 0 2535 1621" fill="none" xmlns="http://www.w3.org/2000/svg">
<g clip-path="url(#clip0_103_54)">
<path fill-rule="evenodd" clip-rule="evenodd" d="M889.39 1153.61V1319H890.39V1153.61H1064.58V1319H1065.58V1153.61H1239.78V1319H1240.78V1153.61H1414.97V1319H1415.97V1153.61H1590.16V1319H1591.16V1153.61H1755V1152.61H1591.16V978.417H1755V977.417H1591.16V803.225H1755V802.225H1591.16V628.032H1755V627.032H1591.16V452.84H1755V451.84H1591.16V288H1590.16V451.84H1415.97V288H1414.97V451.84H1240.78V288H1239.78V451.84H1065.58V288H1064.58V451.84H890.39V288H889.39V451.84H724V452.84H889.39V627.032H724V628.032H889.39V802.225H724V803.225H889.39V977.417H724V978.417H889.39V1152.61H724V1153.61H889.39ZM890.39 452.84V627.032H1064.58V452.84H890.39ZM1065.58 452.84V627.032H1239.78V452.84H1065.58ZM1240.78 452.84V627.032H1414.97V452.84H1240.78ZM1415.97 452.84V627.032H1590.16V452.84H1415.97ZM1415.97 628.032H1590.16V802.225H1415.97V628.032ZM1240.78 628.032H1414.97V802.225H1240.78V628.032ZM1065.58 628.032H1239.78V802.225H1065.58V628.032ZM890.39 628.032H1064.58V802.225H890.39V628.032ZM890.39 803.225V977.417H1064.58V803.225H890.39ZM1065.58 803.225V977.417H1239.78V803.225H1065.58ZM1240.78 803.225V977.417H1414.97V803.225H1240.78ZM1415.97 803.225V977.417H1590.16V803.225H1415.97ZM1415.97 978.417H1590.16V1152.61H1415.97V978.417ZM1240.78 978.417H1414.97V1152.61H1240.78V978.417ZM1065.58 978.417H1239.78V1152.61H1065.58V978.417ZM890.39 978.417H1064.58V1152.61H890.39V978.417Z" fill="url(#paint0_radial_103_54)" fill-opacity="0.64"/>
<path fill-rule="evenodd" clip-rule="evenodd" d="M980.39 1237.61V1403H981.39V1237.61H1155.58V1403H1156.58V1237.61H1330.78V1403H1331.78V1237.61H1505.97V1403H1506.97V1237.61H1681.16V1403H1682.16V1237.61H1846V1236.61H1682.16V1062.42H1846V1061.42H1682.16V887.225H1846V886.225H1682.16V712.032H1846V711.032H1682.16V536.84H1846V535.84H1682.16V372H1681.16V535.84H1506.97V372H1505.97V535.84H1331.78V372H1330.78V535.84H1156.58V372H1155.58V535.84H981.39V372H980.39V535.84H815V536.84H980.39V711.032H815V712.032H980.39V886.225H815V887.225H980.39V1061.42H815V1062.42H980.39V1236.61H815V1237.61H980.39ZM981.39 536.84V711.032H1155.58V536.84H981.39ZM1156.58 536.84V711.032H1330.78V536.84H1156.58ZM1331.78 536.84V711.032H1505.97V536.84H1331.78ZM1506.97 536.84V711.032H1681.16V536.84H1506.97ZM1506.97 712.032H1681.16V886.225H1506.97V712.032ZM1331.78 712.032H1505.97V886.225H1331.78V712.032ZM1156.58 712.032H1330.78V886.225H1156.58V712.032ZM981.39 712.032H1155.58V886.225H981.39V712.032ZM981.39 887.225V1061.42H1155.58V887.225H981.39ZM1156.58 887.225V1061.42H1330.78V887.225H1156.58ZM1331.78 887.225V1061.42H1505.97V887.225H1331.78ZM1506.97 887.225V1061.42H1681.16V887.225H1506.97ZM1506.97 1062.42H1681.16V1236.61H1506.97V1062.42ZM1331.78 1062.42H1505.97V1236.61H1331.78V1062.42ZM1156.58 1062.42H1330.78V1236.61H1156.58V1062.42ZM981.39 1062.42H1155.58V1236.61H981.39V1062.42Z" fill="url(#paint1_radial_103_54)" fill-opacity="0.64"/>
<ellipse cx="623.794" cy="586.978" rx="440.226" ry="392.227" transform="rotate(-25.3593 623.794 586.978)" fill="url(#paint2_radial_103_54)" fill-opacity="0.59"/>
<ellipse cx="1614.16" cy="1110.76" rx="730.893" ry="368.202" transform="rotate(-25.3593 1614.16 1110.76)" fill="url(#paint3_radial_103_54)" fill-opacity="0.56"/>
</g>
<defs>
<radialGradient id="paint0_radial_103_54" cx="0" cy="0" r="1" gradientUnits="userSpaceOnUse" gradientTransform="translate(1239.5 803.5) rotate(90) scale(515.5)">
<stop stop-color="#8C56FF" stop-opacity="0.35"/>
<stop offset="1" stop-color="#446DFF" stop-opacity="0"/>
</radialGradient>
<radialGradient id="paint1_radial_103_54" cx="0" cy="0" r="1" gradientUnits="userSpaceOnUse" gradientTransform="translate(1330.5 887.5) rotate(90) scale(515.5)">
<stop stop-color="#8C56FF" stop-opacity="0.35"/>
<stop offset="1" stop-color="#446DFF" stop-opacity="0"/>
</radialGradient>
<radialGradient id="paint2_radial_103_54" cx="0" cy="0" r="1" gradientUnits="userSpaceOnUse" gradientTransform="translate(623.794 586.978) rotate(90) scale(392.227 440.226)">
<stop stop-color="#F926AE" stop-opacity="0.23"/>
<stop offset="1" stop-color="#F926AE" stop-opacity="0"/>
</radialGradient>
<radialGradient id="paint3_radial_103_54" cx="0" cy="0" r="1" gradientUnits="userSpaceOnUse" gradientTransform="translate(1614.16 1110.76) rotate(90) scale(368.202 730.893)">
<stop stop-color="#5D26F9" stop-opacity="0.23"/>
<stop offset="1" stop-color="#2654F9" stop-opacity="0"/>
</radialGradient>
<clipPath id="clip0_103_54">
<rect width="2535" height="1621" fill="white"/>
</clipPath>
</defs>
</svg>
